<?xml version="1.0" encoding="UTF-8" standalone="no"?>
<!-- Created with Inkscape (http://www.inkscape.org/) -->

<svg
   width="60.240509mm"
   height="15.093613mm"
   viewBox="0 0 60.240509 15.093613"
   version="1.1"
   id="svg5"
   xml:space="preserve"
   inkscape:export-filename="logo.svg"
   inkscape:export-xdpi="96"
   inkscape:export-ydpi="96"
   xmlns:inkscape="http://www.inkscape.org/namespaces/inkscape"
   xmlns:sodipodi="http://sodipodi.sourceforge.net/DTD/sodipodi-0.dtd"
   xmlns="http://www.w3.org/2000/svg"
   xmlns:svg="http://www.w3.org/2000/svg"><sodipodi:namedview
     id="namedview7"
     pagecolor="#ffffff"
     bordercolor="#000000"
     borderopacity="0.25"
     inkscape:showpageshadow="2"
     inkscape:pageopacity="0.0"
     inkscape:pagecheckerboard="0"
     inkscape:deskcolor="#d1d1d1"
     inkscape:document-units="mm"
     showgrid="false" /><defs
     id="defs2" /><g
     inkscape:label="Layer 1"
     inkscape:groupmode="layer"
     id="layer1"
     transform="translate(-78.328768,-130.5402)"><path
       style="fill:#ffe500;fill-opacity:1;stroke-width:0.264583"
       d="m 79.384641,143.58331 c 0.111956,-1.12779 0.265591,-2.55654 0.341418,-3.175 0.107739,-0.87875 0.05224,-1.12448 -0.253949,-1.12448 -0.259885,0 -0.391814,-0.27013 -0.391814,-0.80227 0,-0.56836 -0.158874,-0.86105 -0.544901,-1.00385 -0.444686,-0.1645 -0.225711,-0.31426 1.190625,-0.81427 1.744432,-0.61584 2.131012,-0.96259 1.272505,-1.14142 -0.282871,-0.0589 0.02217,-0.26482 0.784014,-0.52919 0.685871,-0.23801 1.506656,-0.67462 1.823971,-0.97024 0.440489,-0.41038 0.693092,-0.47533 1.06807,-0.27465 0.270124,0.14456 0.491133,0.36224 0.491133,0.48373 0,0.12149 0.538848,0.37176 1.19744,0.55615 1.112825,0.31158 1.840302,0.79185 1.199426,0.79185 -0.791258,0 -0.09189,0.5694 1.341138,1.0919 1.369396,0.49931 1.533851,0.62354 1.058333,0.79944 -0.404711,0.14971 -0.563004,0.43384 -0.563004,1.01055 v 0.80227 h 3.138147 3.138146 l 0.166846,-1.38906 c 0.299683,-2.49501 0.227214,-3.10527 -0.396134,-3.33587 -0.48559,-0.17963 -0.312931,-0.31819 1.195234,-0.95916 1.443474,-0.61349 1.734786,-0.83753 1.608085,-1.23673 -0.104212,-0.32833 -0.02283,-0.48751 0.249264,-0.48751 0.222199,0 0.682582,-0.30044 1.023072,-0.66765 l 0.619074,-0.66764 0.58051,0.66764 c 0.31928,0.36721 0.76791,0.66765 0.99696,0.66765 0.28419,0 0.36731,0.15483 0.26172,0.48751 -0.1267,0.3992 0.16461,0.62324 1.60809,1.23673 1.50816,0.64097 1.68082,0.77953 1.19523,0.95916 -0.47264,0.17484 -0.56709,0.42161 -0.56466,1.47526 0.002,0.69591 0.0767,1.71178 0.16691,2.25748 l 0.16399,0.99219 h 5.0114 5.0114 l -0.0851,-0.71751 c -0.0779,-0.65651 0.0274,-0.74901 1.23783,-1.08818 1.58925,-0.4453 1.61301,-0.4635 1.22122,-0.93557 -0.25034,-0.30164 -0.17142,-0.40743 0.41349,-0.55423 0.39758,-0.0998 0.88781,-0.41691 1.0894,-0.70471 0.36005,-0.51405 0.37754,-0.51139 0.99139,0.15096 0.34367,0.37083 0.80914,0.67424 1.03437,0.67424 0.22523,0 0.40951,0.11906 0.40951,0.26459 0,0.14552 -0.11906,0.26458 -0.26458,0.26458 -0.14552,0 -0.26459,0.10184 -0.26459,0.2263 0,0.12448 0.62508,0.39403 1.38907,0.59902 1.28502,0.34479 1.38269,0.42692 1.30398,1.09661 l -0.0851,0.7239 h 2.26789 2.26789 v -0.80227 c 0,-0.57671 -0.15829,-0.86084 -0.563,-1.01055 -0.47552,-0.1759 -0.31106,-0.30013 1.05833,-0.79944 1.46176,-0.53298 2.12917,-1.0919 1.30384,-1.0919 -0.55287,0 0.12894,-0.44725 1.20802,-0.79242 0.56255,-0.17994 1.24989,-0.55424 1.52742,-0.83177 0.39773,-0.39773 0.6154,-0.44531 1.02771,-0.22465 0.2877,0.15397 0.5231,0.39311 0.5231,0.53142 0,0.1383 0.53781,0.38688 1.19512,0.5524 1.19672,0.30134 1.84492,0.76502 1.06945,0.76502 -0.92808,0 -0.30794,0.50799 1.32304,1.08377 1.41634,0.50001 1.63531,0.64977 1.19062,0.81427 -0.38602,0.1428 -0.5449,0.43549 -0.5449,1.00385 0,0.48488 -0.13707,0.80227 -0.34647,0.80227 -0.34057,0 -0.29496,1.20076 0.19849,5.22552 l 0.13786,1.12448 H 108.49438 79.181089 Z m 19.803989,0.72761 v -0.79375 h -1.719792 -1.719792 v 0.79375 0.79375 h 1.719792 1.719792 z m 23.28333,0 v -0.79375 h -1.71979 -1.71979 v 0.79375 0.79375 h 1.71979 1.71979 z m -31.749997,-1.85209 c 0,-0.29104 -0.119063,-0.52916 -0.264583,-0.52916 -0.145521,0 -0.264584,0.23812 -0.264584,0.52916 0,0.29104 0.119063,0.52917 0.264584,0.52917 0.14552,0 0.264583,-0.23813 0.264583,-0.52917 z m 1.322917,-0.14791 c 0,-0.20969 -0.178594,-0.38125 -0.396875,-0.38125 -0.398524,0 -0.543899,0.55853 -0.22768,0.87475 0.24692,0.24692 0.624555,-0.0515 0.624555,-0.4935 z m 1.322916,0 c 0,-0.20969 -0.178593,-0.38125 -0.396875,-0.38125 -0.398523,0 -0.543898,0.55853 -0.227679,0.87475 0.24692,0.24692 0.624554,-0.0515 0.624554,-0.4935 z m 1.322917,0 c 0,-0.20969 -0.178594,-0.38125 -0.396875,-0.38125 -0.398523,0 -0.543899,0.55853 -0.227679,0.87475 0.24692,0.24692 0.624554,-0.0515 0.624554,-0.4935 z m 1.322917,0 c 0,-0.20969 -0.178594,-0.38125 -0.396875,-0.38125 -0.398524,0 -0.543899,0.55853 -0.22768,0.87475 0.24692,0.24692 0.624555,-0.0515 0.624555,-0.4935 z m 3.704167,0.14791 c 0,-0.29104 -0.119063,-0.52916 -0.264584,-0.52916 -0.145521,0 -0.264583,0.23812 -0.264583,0.52916 0,0.29104 0.119062,0.52917 0.264583,0.52917 0.145521,0 0.264584,-0.23813 0.264584,-0.52917 z m 1.322913,0 c 0,-0.29104 -0.11906,-0.52916 -0.26458,-0.52916 -0.14552,0 -0.26458,0.23812 -0.26458,0.52916 0,0.29104 0.11906,0.52917 0.26458,0.52917 0.14552,0 0.26458,-0.23813 0.26458,-0.52917 z m 1.32292,0 c 0,-0.29398 -0.17639,-0.52916 -0.39687,-0.52916 -0.40281,0 -0.54273,0.5597 -0.22049,0.88194 0.33544,0.33544 0.61736,0.17434 0.61736,-0.35278 z m 1.32292,-0.14791 c 0,-0.20969 -0.1786,-0.38125 -0.39688,-0.38125 -0.39852,0 -0.5439,0.55853 -0.22768,0.87475 0.24692,0.24692 0.62456,-0.0515 0.62456,-0.4935 z m 1.32291,0 c 0,-0.20969 -0.17859,-0.38125 -0.39687,-0.38125 -0.39852,0 -0.5439,0.55853 -0.22768,0.87475 0.24692,0.24692 0.62455,-0.0515 0.62455,-0.4935 z m 1.32292,0 c 0,-0.20969 -0.1786,-0.38125 -0.39688,-0.38125 -0.39852,0 -0.54389,0.55853 -0.22768,0.87475 0.24692,0.24692 0.62456,-0.0515 0.62456,-0.4935 z m 1.32291,0 c 0,-0.20969 -0.17859,-0.38125 -0.39687,-0.38125 -0.39853,0 -0.5439,0.55853 -0.22768,0.87475 0.24692,0.24692 0.62455,-0.0515 0.62455,-0.4935 z m 1.05834,0.14791 c 0,-0.29104 -0.11907,-0.52916 -0.26459,-0.52916 -0.14552,0 -0.26458,0.23812 -0.26458,0.52916 0,0.29104 0.11906,0.52917 0.26458,0.52917 0.14552,0 0.26459,-0.23813 0.26459,-0.52917 z m 1.32291,0 c 0,-0.29104 -0.11906,-0.52916 -0.26458,-0.52916 -0.14552,0 -0.26458,0.23812 -0.26458,0.52916 0,0.29104 0.11906,0.52917 0.26458,0.52917 0.14552,0 0.26458,-0.23813 0.26458,-0.52917 z m 1.32292,0 c 0,-0.29104 -0.11906,-0.52916 -0.26458,-0.52916 -0.14552,0 -0.26459,0.23812 -0.26459,0.52916 0,0.29104 0.11907,0.52917 0.26459,0.52917 0.14552,0 0.26458,-0.23813 0.26458,-0.52917 z m 1.32292,0 c 0,-0.29398 -0.17639,-0.52916 -0.39688,-0.52916 -0.4028,0 -0.54273,0.5597 -0.22048,0.88194 0.33543,0.33544 0.61736,0.17434 0.61736,-0.35278 z m 1.32291,-0.14791 c 0,-0.20969 -0.17859,-0.38125 -0.39687,-0.38125 -0.39853,0 -0.5439,0.55853 -0.22768,0.87475 0.24692,0.24692 0.62455,-0.0515 0.62455,-0.4935 z m 1.32292,0 c 0,-0.20969 -0.17859,-0.38125 -0.39688,-0.38125 -0.39852,0 -0.54389,0.55853 -0.22767,0.87475 0.24692,0.24692 0.62455,-0.0515 0.62455,-0.4935 z m 1.32292,0 c 0,-0.20969 -0.1786,-0.38125 -0.39688,-0.38125 -0.39852,0 -0.5439,0.55853 -0.22768,0.87475 0.24692,0.24692 0.62456,-0.0515 0.62456,-0.4935 z m 1.05833,0.14791 c 0,-0.29104 -0.11906,-0.52916 -0.26458,-0.52916 -0.14552,0 -0.26459,0.23812 -0.26459,0.52916 0,0.29104 0.11907,0.52917 0.26459,0.52917 0.14552,0 0.26458,-0.23813 0.26458,-0.52917 z m 1.32292,0 c 0,-0.29104 -0.11907,-0.52916 -0.26459,-0.52916 -0.14552,0 -0.26458,0.23812 -0.26458,0.52916 0,0.29104 0.11906,0.52917 0.26458,0.52917 0.14552,0 0.26459,-0.23813 0.26459,-0.52917 z m 3.96875,-0.14791 c 0,-0.20969 -0.1786,-0.38125 -0.39688,-0.38125 -0.39852,0 -0.5439,0.55853 -0.22768,0.87475 0.24692,0.24692 0.62456,-0.0515 0.62456,-0.4935 z m 1.32291,0 c 0,-0.20969 -0.17859,-0.38125 -0.39687,-0.38125 -0.39853,0 -0.5439,0.55853 -0.22768,0.87475 0.24692,0.24692 0.62455,-0.0515 0.62455,-0.4935 z m 1.32292,0 c 0,-0.20969 -0.17859,-0.38125 -0.39688,-0.38125 -0.39852,0 -0.54389,0.55853 -0.22767,0.87475 0.24692,0.24692 0.62455,-0.0515 0.62455,-0.4935 z m 1.27617,0.0598 c 0.0506,-0.26108 -0.0843,-0.44109 -0.33073,-0.44109 -0.24543,0 -0.41627,0.22622 -0.41627,0.55121 0,0.64481 0.61827,0.55366 0.747,-0.11012 z m -29.586584,-0.17651 c 0,-0.14552 -0.178593,-0.26458 -0.396875,-0.26458 -0.218281,0 -0.396875,0.11906 -0.396875,0.26458 0,0.14552 0.178594,0.26458 0.396875,0.26458 0.218282,0 0.396875,-0.11906 0.396875,-0.26458 z m 1.058334,0 c 0,-0.14552 -0.119063,-0.26458 -0.264584,-0.26458 -0.14552,0 -0.264583,0.11906 -0.264583,0.26458 0,0.14552 0.119063,0.26458 0.264583,0.26458 0.145521,0 0.264584,-0.11906 0.264584,-0.26458 z m 21.96041,0 c 0,-0.14552 -0.11906,-0.26458 -0.26458,-0.26458 -0.14552,0 -0.26458,0.11906 -0.26458,0.26458 0,0.14552 0.11906,0.26458 0.26458,0.26458 0.14552,0 0.26458,-0.11906 0.26458,-0.26458 z m 1.32292,0 c 0,-0.14552 -0.17859,-0.26458 -0.39688,-0.26458 -0.21828,0 -0.39687,0.11906 -0.39687,0.26458 0,0.14552 0.17859,0.26458 0.39687,0.26458 0.21829,0 0.39688,-0.11906 0.39688,-0.26458 z M 81.726129,141.5107 c 0,-0.82886 -0.621366,-0.73814 -0.746006,0.10892 -0.05615,0.38159 0.05494,0.57459 0.33073,0.57459 0.270144,0 0.415276,-0.23887 0.415276,-0.68351 z m 1.852084,0.022 c 0,-0.3638 -0.119063,-0.66146 -0.264584,-0.66146 -0.14552,0 -0.264583,0.29766 -0.264583,0.66146 0,0.3638 0.119063,0.66146 0.264583,0.66146 0.145521,0 0.264584,-0.29766 0.264584,-0.66146 z m 2.116666,0 c 0,-0.41157 -0.149931,-0.66146 -0.396875,-0.66146 -0.246943,0 -0.396875,0.24989 -0.396875,0.66146 0,0.41158 0.149932,0.66146 0.396875,0.66146 0.246944,0 0.396875,-0.24988 0.396875,-0.66146 z m 1.852084,0 c 0,-0.41157 -0.149932,-0.66146 -0.396875,-0.66146 -0.246944,0 -0.396875,0.24989 -0.396875,0.66146 0,0.41158 0.149931,0.66146 0.396875,0.66146 0.246943,0 0.396875,-0.24988 0.396875,-0.66146 z m 42.597917,0 c 0,-0.41157 -0.14993,-0.66146 -0.39688,-0.66146 -0.24694,0 -0.39687,0.24989 -0.39687,0.66146 0,0.41158 0.14993,0.66146 0.39687,0.66146 0.24695,0 0.39688,-0.24988 0.39688,-0.66146 z m 1.85208,0 c 0,-0.41157 -0.14993,-0.66146 -0.39688,-0.66146 -0.24694,0 -0.39687,0.24989 -0.39687,0.66146 0,0.41158 0.14993,0.66146 0.39687,0.66146 0.24695,0 0.39688,-0.24988 0.39688,-0.66146 z m 1.85208,0 c 0,-0.3638 -0.11906,-0.66146 -0.26458,-0.66146 -0.14552,0 -0.26458,0.29766 -0.26458,0.66146 0,0.3638 0.11906,0.66146 0.26458,0.66146 0.14552,0 0.26458,-0.29766 0.26458,-0.66146 z m 2.11667,0 c 0,-0.41157 -0.14993,-0.66146 -0.39687,-0.66146 -0.24695,0 -0.39688,0.24989 -0.39688,0.66146 0,0.41158 0.14993,0.66146 0.39688,0.66146 0.24694,0 0.39687,-0.24988 0.39687,-0.66146 z m -45.772914,-0.66145 c 0,-0.14552 -0.178593,-0.26458 -0.396875,-0.26458 -0.218281,0 -0.396875,0.11906 -0.396875,0.26458 0,0.14552 0.178594,0.26459 0.396875,0.26459 0.218282,0 0.396875,-0.11907 0.396875,-0.26459 z m 1.322917,0 c 0,-0.14552 -0.178594,-0.26458 -0.396875,-0.26458 -0.218281,0 -0.396875,0.11906 -0.396875,0.26458 0,0.14552 0.178594,0.26459 0.396875,0.26459 0.218281,0 0.396875,-0.11907 0.396875,-0.26459 z m 1.322917,0 c 0,-0.14552 -0.178594,-0.26458 -0.396875,-0.26458 -0.218282,0 -0.396875,0.11906 -0.396875,0.26458 0,0.14552 0.178593,0.26459 0.396875,0.26459 0.218281,0 0.396875,-0.11907 0.396875,-0.26459 z m 1.058333,0 c 0,-0.14552 -0.119062,-0.26458 -0.264583,-0.26458 -0.145521,0 -0.264584,0.11906 -0.264584,0.26458 0,0.14552 0.119063,0.26459 0.264584,0.26459 0.145521,0 0.264583,-0.11907 0.264583,-0.26459 z m 1.322917,0 c 0,-0.14552 -0.119063,-0.26458 -0.264584,-0.26458 -0.14552,0 -0.264583,0.11906 -0.264583,0.26458 0,0.14552 0.119063,0.26459 0.264583,0.26459 0.145521,0 0.264584,-0.11907 0.264584,-0.26459 z m 1.322916,0 c 0,-0.14552 -0.178593,-0.26458 -0.396875,-0.26458 -0.218281,0 -0.396875,0.11906 -0.396875,0.26458 0,0.14552 0.178594,0.26459 0.396875,0.26459 0.218282,0 0.396875,-0.11907 0.396875,-0.26459 z m 1.322917,0 c 0,-0.14552 -0.178594,-0.26458 -0.396875,-0.26458 -0.218281,0 -0.396875,0.11906 -0.396875,0.26458 0,0.14552 0.178594,0.26459 0.396875,0.26459 0.218281,0 0.396875,-0.11907 0.396875,-0.26459 z m 1.322917,0 c 0,-0.14552 -0.178594,-0.26458 -0.396875,-0.26458 -0.218281,0 -0.396875,0.11906 -0.396875,0.26458 0,0.14552 0.178594,0.26459 0.396875,0.26459 0.218281,0 0.396875,-0.11907 0.396875,-0.26459 z m 1.32292,0 c 0,-0.14552 -0.1786,-0.26458 -0.39688,-0.26458 -0.21828,0 -0.396873,0.11906 -0.396873,0.26458 0,0.14552 0.178593,0.26459 0.396873,0.26459 0.21828,0 0.39688,-0.11907 0.39688,-0.26459 z m 1.32291,0 c 0,-0.14552 -0.17859,-0.26458 -0.39687,-0.26458 -0.21828,0 -0.39688,0.11906 -0.39688,0.26458 0,0.14552 0.1786,0.26459 0.39688,0.26459 0.21828,0 0.39687,-0.11907 0.39687,-0.26459 z m 1.32292,0 c 0,-0.14552 -0.17859,-0.26458 -0.39687,-0.26458 -0.21829,0 -0.39688,0.11906 -0.39688,0.26458 0,0.14552 0.17859,0.26459 0.39688,0.26459 0.21828,0 0.39687,-0.11907 0.39687,-0.26459 z m 1.05833,0 c 0,-0.14552 -0.11906,-0.26458 -0.26458,-0.26458 -0.14552,0 -0.26458,0.11906 -0.26458,0.26458 0,0.14552 0.11906,0.26459 0.26458,0.26459 0.14552,0 0.26458,-0.11907 0.26458,-0.26459 z m 1.32292,0 c 0,-0.14552 -0.11906,-0.26458 -0.26458,-0.26458 -0.14552,0 -0.26459,0.11906 -0.26459,0.26458 0,0.14552 0.11907,0.26459 0.26459,0.26459 0.14552,0 0.26458,-0.11907 0.26458,-0.26459 z m 1.32291,0 c 0,-0.14552 -0.17859,-0.26458 -0.39687,-0.26458 -0.21828,0 -0.39688,0.11906 -0.39688,0.26458 0,0.14552 0.1786,0.26459 0.39688,0.26459 0.21828,0 0.39687,-0.11907 0.39687,-0.26459 z m 1.32292,0 c 0,-0.14552 -0.17859,-0.26458 -0.39688,-0.26458 -0.21828,0 -0.39687,0.11906 -0.39687,0.26458 0,0.14552 0.17859,0.26459 0.39687,0.26459 0.21829,0 0.39688,-0.11907 0.39688,-0.26459 z m 1.32292,0 c 0,-0.14552 -0.1786,-0.26458 -0.39688,-0.26458 -0.21828,0 -0.39687,0.11906 -0.39687,0.26458 0,0.14552 0.17859,0.26459 0.39687,0.26459 0.21828,0 0.39688,-0.11907 0.39688,-0.26459 z m 1.32291,0 c 0,-0.14552 -0.17859,-0.26458 -0.39687,-0.26458 -0.21828,0 -0.39688,0.11906 -0.39688,0.26458 0,0.14552 0.1786,0.26459 0.39688,0.26459 0.21828,0 0.39687,-0.11907 0.39687,-0.26459 z m 1.32292,0 c 0,-0.14552 -0.17859,-0.26458 -0.39688,-0.26458 -0.21828,0 -0.39687,0.11906 -0.39687,0.26458 0,0.14552 0.17859,0.26459 0.39687,0.26459 0.21829,0 0.39688,-0.11907 0.39688,-0.26459 z m 1.19062,0 c -0.0899,-0.14552 -0.27555,-0.26458 -0.41249,-0.26458 -0.13693,0 -0.24896,0.11906 -0.24896,0.26458 0,0.14552 0.18562,0.26459 0.41249,0.26459 0.22687,0 0.3389,-0.11907 0.24896,-0.26459 z m 1.19063,0 c 0,-0.14552 -0.11906,-0.26458 -0.26458,-0.26458 -0.14552,0 -0.26459,0.11906 -0.26459,0.26458 0,0.14552 0.11907,0.26459 0.26459,0.26459 0.14552,0 0.26458,-0.11907 0.26458,-0.26459 z m 1.32292,0 c 0,-0.14552 -0.11907,-0.26458 -0.26459,-0.26458 -0.14552,0 -0.26458,0.11906 -0.26458,0.26458 0,0.14552 0.11906,0.26459 0.26458,0.26459 0.14552,0 0.26459,-0.11907 0.26459,-0.26459 z m 1.32291,0 c 0,-0.14552 -0.17859,-0.26458 -0.39687,-0.26458 -0.21828,0 -0.39688,0.11906 -0.39688,0.26458 0,0.14552 0.1786,0.26459 0.39688,0.26459 0.21828,0 0.39687,-0.11907 0.39687,-0.26459 z m 1.32292,0 c 0,-0.14552 -0.17859,-0.26458 -0.39688,-0.26458 -0.21828,0 -0.39687,0.11906 -0.39687,0.26458 0,0.14552 0.17859,0.26459 0.39687,0.26459 0.21829,0 0.39688,-0.11907 0.39688,-0.26459 z m 1.32292,0 c 0,-0.14552 -0.1786,-0.26458 -0.39688,-0.26458 -0.21828,0 -0.39687,0.11906 -0.39687,0.26458 0,0.14552 0.17859,0.26459 0.39687,0.26459 0.21828,0 0.39688,-0.11907 0.39688,-0.26459 z m 1.32291,0 c 0,-0.14552 -0.17859,-0.26458 -0.39687,-0.26458 -0.21828,0 -0.39688,0.11906 -0.39688,0.26458 0,0.14552 0.1786,0.26459 0.39688,0.26459 0.21828,0 0.39687,-0.11907 0.39687,-0.26459 z m 1.32292,0 c 0,-0.14552 -0.17859,-0.26458 -0.39688,-0.26458 -0.21828,0 -0.39687,0.11906 -0.39687,0.26458 0,0.14552 0.17859,0.26459 0.39687,0.26459 0.21829,0 0.39688,-0.11907 0.39688,-0.26459 z m 1.05833,0 c 0,-0.14552 -0.11906,-0.26458 -0.26458,-0.26458 -0.14552,0 -0.26458,0.11906 -0.26458,0.26458 0,0.14552 0.11906,0.26459 0.26458,0.26459 0.14552,0 0.26458,-0.11907 0.26458,-0.26459 z m 1.32292,0 c 0,-0.14552 -0.11906,-0.26458 -0.26458,-0.26458 -0.14552,0 -0.26459,0.11906 -0.26459,0.26458 0,0.14552 0.11907,0.26459 0.26459,0.26459 0.14552,0 0.26458,-0.11907 0.26458,-0.26459 z m 1.32292,0 c 0,-0.14552 -0.1786,-0.26458 -0.39688,-0.26458 -0.21828,0 -0.39687,0.11906 -0.39687,0.26458 0,0.14552 0.17859,0.26459 0.39687,0.26459 0.21828,0 0.39688,-0.11907 0.39688,-0.26459 z m 1.32291,0 c 0,-0.14552 -0.17859,-0.26458 -0.39687,-0.26458 -0.21828,0 -0.39688,0.11906 -0.39688,0.26458 0,0.14552 0.1786,0.26459 0.39688,0.26459 0.21828,0 0.39687,-0.11907 0.39687,-0.26459 z M 81.726129,139.813 c 0,-0.55803 -0.384937,-0.71201 -0.661458,-0.26458 -0.192934,0.31217 0.05733,0.79375 0.412491,0.79375 0.136932,0 0.248967,-0.23813 0.248967,-0.52917 z m 1.852084,0 c 0,-0.29104 -0.119063,-0.52917 -0.264584,-0.52917 -0.14552,0 -0.264583,0.23813 -0.264583,0.52917 0,0.29104 0.119063,0.52917 0.264583,0.52917 0.145521,0 0.264584,-0.23813 0.264584,-0.52917 z m 2.116666,0 c 0,-0.29398 -0.176389,-0.52917 -0.396875,-0.52917 -0.220485,0 -0.396875,0.23519 -0.396875,0.52917 0,0.29398 0.17639,0.52917 0.396875,0.52917 0.220486,0 0.396875,-0.23519 0.396875,-0.52917 z m 1.852084,0 c 0,-0.29398 -0.17639,-0.52917 -0.396875,-0.52917 -0.402804,0 -0.542729,0.5597 -0.220485,0.88195 0.335436,0.33543 0.61736,0.17433 0.61736,-0.35278 z m 42.597917,0 c 0,-0.29398 -0.17639,-0.52917 -0.39688,-0.52917 -0.22048,0 -0.39687,0.23519 -0.39687,0.52917 0,0.29398 0.17639,0.52917 0.39687,0.52917 0.22049,0 0.39688,-0.23519 0.39688,-0.52917 z m 1.85208,0 c 0,-0.29398 -0.17639,-0.52917 -0.39688,-0.52917 -0.4028,0 -0.54272,0.5597 -0.22048,0.88195 0.33544,0.33543 0.61736,0.17433 0.61736,-0.35278 z m 1.85208,0 c 0,-0.29104 -0.11906,-0.52917 -0.26458,-0.52917 -0.14552,0 -0.26458,0.23813 -0.26458,0.52917 0,0.29104 0.11906,0.52917 0.26458,0.52917 0.14552,0 0.26458,-0.23813 0.26458,-0.52917 z m 2.11667,0 c 0,-0.29398 -0.17639,-0.52917 -0.39687,-0.52917 -0.22049,0 -0.39688,0.23519 -0.39688,0.52917 0,0.29398 0.17639,0.52917 0.39688,0.52917 0.22048,0 0.39687,-0.23519 0.39687,-0.52917 z m -35.5148,-0.84336 c -0.16353,-0.4906 -0.733113,-0.57197 -0.733113,-0.10473 0,0.23041 0.188515,0.41892 0.418923,0.41892 0.23041,0 0.37179,-0.14139 0.31419,-0.31419 z m 15.40647,-0.0827 c 0,-0.21828 -0.11907,-0.39688 -0.26459,-0.39688 -0.14552,0 -0.26458,0.1786 -0.26458,0.39688 0,0.21828 0.11906,0.39687 0.26458,0.39687 0.14552,0 0.26459,-0.17859 0.26459,-0.39687 z m 1.32291,-0.022 c 0,-0.46724 -0.56958,-0.38587 -0.73311,0.10473 -0.0576,0.1728 0.0838,0.31419 0.31419,0.31419 0.23041,-1e-5 0.41892,-0.18852 0.41892,-0.41893 z m 1.32292,0 c 0,-0.46724 -0.56958,-0.38587 -0.73312,0.10473 -0.0576,0.1728 0.0838,0.31419 0.3142,0.31419 0.2304,-1e-5 0.41892,-0.18852 0.41892,-0.41893 z m 2.5852,0.10473 c -0.16353,-0.4906 -0.73312,-0.57197 -0.73312,-0.10474 0,0.23041 0.18852,0.41892 0.41893,0.41892 0.23041,0 0.37179,-0.14138 0.31419,-0.31419 z m 1.32292,0 c -0.16354,-0.4906 -0.73312,-0.57197 -0.73312,-0.10474 0,0.23041 0.18852,0.41892 0.41892,0.41892 0.23041,0 0.3718,-0.14138 0.3142,-0.31419 z m -41.743534,-0.61186 c 0,-0.21828 -0.119062,-0.39687 -0.264583,-0.39687 -0.145521,0 -0.264584,0.17859 -0.264584,0.39687 0,0.21828 0.119063,0.39688 0.264584,0.39688 0.145521,0 0.264583,-0.1786 0.264583,-0.39688 z m 2.116667,0 c 0,-0.21828 -0.178594,-0.39687 -0.396875,-0.39687 -0.218282,0 -0.396875,0.17859 -0.396875,0.39687 0,0.21828 0.178593,0.39688 0.396875,0.39688 0.218281,0 0.396875,-0.1786 0.396875,-0.39688 z m 1.852083,0 c 0,-0.21828 -0.178594,-0.39687 -0.396875,-0.39687 -0.413165,0 -0.524925,0.31292 -0.220485,0.61736 0.304437,0.30444 0.61736,0.19268 0.61736,-0.22049 z m 1.852083,0 c 0,-0.21828 -0.119062,-0.39687 -0.264583,-0.39687 -0.145521,0 -0.264583,0.17859 -0.264583,0.39687 0,0.21828 0.119062,0.39688 0.264583,0.39688 0.145521,0 0.264583,-0.1786 0.264583,-0.39688 z m 2.056033,-0.0827 c 0.0576,-0.17281 -0.08378,-0.31419 -0.314193,-0.31419 -0.230407,0 -0.418923,0.18851 -0.418923,0.41892 0,0.46724 0.569585,0.38587 0.733116,-0.10473 z m 40.541878,0.0827 c 0,-0.21828 -0.17859,-0.39687 -0.39687,-0.39687 -0.41317,0 -0.52493,0.31292 -0.22049,0.61736 0.30444,0.30444 0.61736,0.19268 0.61736,-0.22049 z m 1.85209,0 c 0,-0.21828 -0.11907,-0.39687 -0.26459,-0.39687 -0.14552,0 -0.26458,0.17859 -0.26458,0.39687 0,0.21828 0.11906,0.39688 0.26458,0.39688 0.14552,0 0.26459,-0.1786 0.26459,-0.39688 z m 2.05603,-0.0827 c 0.0576,-0.17281 -0.0838,-0.31419 -0.31419,-0.31419 -0.23041,0 -0.41893,0.18851 -0.41893,0.41892 0,0.46724 0.56959,0.38587 0.73312,-0.10473 z m 1.91272,0.0827 c 0,-0.21828 -0.1786,-0.39687 -0.39688,-0.39687 -0.41316,0 -0.52492,0.31292 -0.22048,0.61736 0.30443,0.30444 0.61736,0.19268 0.61736,-0.22049 z m 1.85208,0 c 0,-0.21828 -0.11906,-0.39687 -0.26458,-0.39687 -0.14552,0 -0.26459,0.17859 -0.26459,0.39687 0,0.21828 0.11907,0.39688 0.26459,0.39688 0.14552,0 0.26458,-0.1786 0.26458,-0.39688 z m -35.98333,-0.92604 c 0,-0.38806 -0.17639,-0.52917 -0.66146,-0.52917 -0.485067,0 -0.661457,0.14111 -0.661457,0.52917 0,0.38806 0.17639,0.52917 0.661457,0.52917 0.48507,0 0.66146,-0.14111 0.66146,-0.52917 z m -3.175,-1.45521 c 0,-0.52917 -0.132292,-0.66146 -0.661459,-0.66146 -0.529166,0 -0.661458,0.13229 -0.661458,0.66146 0,0.52917 0.132292,0.66146 0.661458,0.66146 0.529167,0 0.661459,-0.13229 0.661459,-0.66146 z m 3.43958,-0.13229 c 0,-0.73075 -0.0735,-0.79375 -0.92604,-0.79375 -0.852544,0 -0.92604,0.063 -0.92604,0.79375 0,0.73075 0.0735,0.79375 0.92604,0.79375 0.85255,0 0.92604,-0.063 0.92604,-0.79375 z m 2.91042,0.13229 c 0,-0.52917 -0.13229,-0.66146 -0.66146,-0.66146 -0.52916,0 -0.66146,0.13229 -0.66146,0.66146 0,0.52917 0.1323,0.66146 0.66146,0.66146 0.52917,0 0.66146,-0.13229 0.66146,-0.66146 z"
       id="path302"
       sodipodi:nodetypes="sssssssssssssssscccsssssscssssscsccccssssssssssscccssssssssssssssscccsccccccccccccccccccssssssssssssssssssssssssssssssssssssssssssssssssssssssssssssssssssssssssssssssssssssssssssssssssssssssssssssssssssssssssssssssssssssssssssssssssssssssssssssssssssssssssssssssssssssssssssssssssssssssssssssssssssssssssssssssssssssssssssssssssssssssssssssssssssssssssssssssssssssssssssssssssssssssssssssssssssssssssssssssssssssssssssssssssssssssssssssssssssssssssssssssssssssssssssssssssssssssssssssssssssssssssssssssssssssssssssssssssssssssssssssssss"
       inkscape:export-filename="logo.svg"
       inkscape:export-xdpi="96"
       inkscape:export-ydpi="96" /></g></svg>
