<?xml version="1.0" standalone="no"?>
<svg xmlns:xlink="http://www.w3.org/1999/xlink" id="wave" style="transform:rotate(0deg); transition: 0.3s" viewBox="0 0 1440 310" version="1.1" xmlns="http://www.w3.org/2000/svg"><defs><linearGradient id="sw-gradient-0" x1="0" x2="0" y1="1" y2="0"><stop stop-color="rgba(13, 168, 95, 1)" offset="0%"/><stop stop-color="rgba(13, 168, 95, 1)" offset="100%"/></linearGradient></defs><path style="transform:translate(0, 0px); opacity:1" fill="url(#sw-gradient-0)" d="M0,248L48,248C96,248,192,248,288,217C384,186,480,124,576,82.7C672,41,768,21,864,31C960,41,1056,83,1152,129.2C1248,176,1344,227,1440,217C1536,207,1632,134,1728,118.8C1824,103,1920,145,2016,149.8C2112,155,2208,124,2304,124C2400,124,2496,155,2592,186C2688,217,2784,248,2880,237.7C2976,227,3072,176,3168,144.7C3264,114,3360,103,3456,124C3552,145,3648,196,3744,222.2C3840,248,3936,248,4032,217C4128,186,4224,124,4320,118.8C4416,114,4512,165,4608,155C4704,145,4800,72,4896,41.3C4992,10,5088,21,5184,56.8C5280,93,5376,155,5472,180.8C5568,207,5664,196,5760,186C5856,176,5952,165,6048,144.7C6144,124,6240,93,6336,93C6432,93,6528,124,6624,155C6720,186,6816,217,6864,232.5L6912,248L6912,310L6864,310C6816,310,6720,310,6624,310C6528,310,6432,310,6336,310C6240,310,6144,310,6048,310C5952,310,5856,310,5760,310C5664,310,5568,310,5472,310C5376,310,5280,310,5184,310C5088,310,4992,310,4896,310C4800,310,4704,310,4608,310C4512,310,4416,310,4320,310C4224,310,4128,310,4032,310C3936,310,3840,310,3744,310C3648,310,3552,310,3456,310C3360,310,3264,310,3168,310C3072,310,2976,310,2880,310C2784,310,2688,310,2592,310C2496,310,2400,310,2304,310C2208,310,2112,310,2016,310C1920,310,1824,310,1728,310C1632,310,1536,310,1440,310C1344,310,1248,310,1152,310C1056,310,960,310,864,310C768,310,672,310,576,310C480,310,384,310,288,310C192,310,96,310,48,310L0,310Z"/><defs><linearGradient id="sw-gradient-1" x1="0" x2="0" y1="1" y2="0"><stop stop-color="rgba(13, 168, 95, 1)" offset="0%"/><stop stop-color="rgba(255, 179, 11, 1)" offset="100%"/></linearGradient></defs><path style="transform:translate(0, 50px); opacity:0.9" fill="url(#sw-gradient-1)" d="M0,31L48,25.8C96,21,192,10,288,15.5C384,21,480,41,576,87.8C672,134,768,207,864,222.2C960,238,1056,196,1152,186C1248,176,1344,196,1440,196.3C1536,196,1632,176,1728,170.5C1824,165,1920,176,2016,155C2112,134,2208,83,2304,77.5C2400,72,2496,114,2592,139.5C2688,165,2784,176,2880,175.7C2976,176,3072,165,3168,170.5C3264,176,3360,196,3456,180.8C3552,165,3648,114,3744,98.2C3840,83,3936,103,4032,139.5C4128,176,4224,227,4320,222.2C4416,217,4512,155,4608,108.5C4704,62,4800,31,4896,41.3C4992,52,5088,103,5184,144.7C5280,186,5376,217,5472,227.3C5568,238,5664,227,5760,201.5C5856,176,5952,134,6048,144.7C6144,155,6240,217,6336,211.8C6432,207,6528,134,6624,113.7C6720,93,6816,124,6864,139.5L6912,155L6912,310L6864,310C6816,310,6720,310,6624,310C6528,310,6432,310,6336,310C6240,310,6144,310,6048,310C5952,310,5856,310,5760,310C5664,310,5568,310,5472,310C5376,310,5280,310,5184,310C5088,310,4992,310,4896,310C4800,310,4704,310,4608,310C4512,310,4416,310,4320,310C4224,310,4128,310,4032,310C3936,310,3840,310,3744,310C3648,310,3552,310,3456,310C3360,310,3264,310,3168,310C3072,310,2976,310,2880,310C2784,310,2688,310,2592,310C2496,310,2400,310,2304,310C2208,310,2112,310,2016,310C1920,310,1824,310,1728,310C1632,310,1536,310,1440,310C1344,310,1248,310,1152,310C1056,310,960,310,864,310C768,310,672,310,576,310C480,310,384,310,288,310C192,310,96,310,48,310L0,310Z"/></svg>