<?xml version="1.0" standalone="no"?>
<svg xmlns:xlink="http://www.w3.org/1999/xlink" id="wave" style="transform:rotate(0deg); transition: 0.3s" viewBox="0 0 1440 320" version="1.1" xmlns="http://www.w3.org/2000/svg"><defs><linearGradient id="sw-gradient-0" x1="0" x2="0" y1="1" y2="0"><stop stop-color="rgba(1, 29, 46, 1)" offset="0%"/><stop stop-color="rgba(1, 29, 46, 1)" offset="100%"/></linearGradient></defs><path style="transform:translate(0, 0px); opacity:1" fill="url(#sw-gradient-0)" d="M0,192L34.3,176C68.6,160,137,128,206,144C274.3,160,343,224,411,208C480,192,549,96,617,90.7C685.7,85,754,171,823,192C891.4,213,960,171,1029,138.7C1097.1,107,1166,85,1234,112C1302.9,139,1371,213,1440,250.7C1508.6,288,1577,288,1646,266.7C1714.3,245,1783,203,1851,202.7C1920,203,1989,245,2057,229.3C2125.7,213,2194,139,2263,128C2331.4,117,2400,171,2469,208C2537.1,245,2606,267,2674,277.3C2742.9,288,2811,288,2880,282.7C2948.6,277,3017,267,3086,224C3154.3,181,3223,107,3291,80C3360,53,3429,75,3497,101.3C3565.7,128,3634,160,3703,160C3771.4,160,3840,128,3909,122.7C3977.1,117,4046,139,4114,144C4182.9,149,4251,139,4320,112C4388.6,85,4457,43,4526,21.3C4594.3,0,4663,0,4731,26.7C4800,53,4869,107,4903,133.3L4937.1,160L4937.1,320L4902.9,320C4868.6,320,4800,320,4731,320C4662.9,320,4594,320,4526,320C4457.1,320,4389,320,4320,320C4251.4,320,4183,320,4114,320C4045.7,320,3977,320,3909,320C3840,320,3771,320,3703,320C3634.3,320,3566,320,3497,320C3428.6,320,3360,320,3291,320C3222.9,320,3154,320,3086,320C3017.1,320,2949,320,2880,320C2811.4,320,2743,320,2674,320C2605.7,320,2537,320,2469,320C2400,320,2331,320,2263,320C2194.3,320,2126,320,2057,320C1988.6,320,1920,320,1851,320C1782.9,320,1714,320,1646,320C1577.1,320,1509,320,1440,320C1371.4,320,1303,320,1234,320C1165.7,320,1097,320,1029,320C960,320,891,320,823,320C754.3,320,686,320,617,320C548.6,320,480,320,411,320C342.9,320,274,320,206,320C137.1,320,69,320,34,320L0,320Z"/></svg>